<mxfile host="app.diagrams.net" modified="2022-03-09T20:28:34.608Z" agent="5.0 (Macintosh)" etag="pQEd2_tbt7KJ_Tqf9Kh8" version="17.1.0" type="github">
  <diagram id="9MPO39MfpI7pv3HyR61F" name="Page-1">
    <mxGraphModel dx="729" dy="667" grid="1" gridSize="10" guides="1" tooltips="1" connect="1" arrows="1" fold="1" page="1" pageScale="1" pageWidth="850" pageHeight="1100" math="0" shadow="0">
      <root>
        <mxCell id="0" />
        <mxCell id="1" parent="0" />
        <mxCell id="cj-YQitfOQZqWISBJvCt-16" value="" style="edgeStyle=orthogonalEdgeStyle;rounded=0;orthogonalLoop=1;jettySize=auto;html=1;" edge="1" parent="1" source="cj-YQitfOQZqWISBJvCt-1" target="cj-YQitfOQZqWISBJvCt-12">
          <mxGeometry relative="1" as="geometry" />
        </mxCell>
        <mxCell id="cj-YQitfOQZqWISBJvCt-1" value="&lt;div&gt;data project&lt;/div&gt;&lt;div&gt;&lt;br&gt;&lt;br&gt;&lt;/div&gt;" style="verticalLabelPosition=middle;verticalAlign=middle;html=1;shape=mxgraph.flowchart.on-page_reference;fontStyle=0;horizontal=1;labelPosition=center;align=center;" vertex="1" parent="1">
          <mxGeometry x="80" y="130" width="360" height="80" as="geometry" />
        </mxCell>
        <mxCell id="cj-YQitfOQZqWISBJvCt-15" style="edgeStyle=orthogonalEdgeStyle;rounded=0;orthogonalLoop=1;jettySize=auto;html=1;exitX=0.5;exitY=1;exitDx=0;exitDy=0;entryX=0.5;entryY=0;entryDx=0;entryDy=0;entryPerimeter=0;" edge="1" parent="1" source="cj-YQitfOQZqWISBJvCt-4" target="cj-YQitfOQZqWISBJvCt-1">
          <mxGeometry relative="1" as="geometry" />
        </mxCell>
        <mxCell id="cj-YQitfOQZqWISBJvCt-4" value="External Systems" style="rounded=0;whiteSpace=wrap;html=1;" vertex="1" parent="1">
          <mxGeometry x="150" y="20" width="220" height="80" as="geometry" />
        </mxCell>
        <mxCell id="cj-YQitfOQZqWISBJvCt-6" value="RDF" style="shape=cylinder3;whiteSpace=wrap;html=1;boundedLbl=1;backgroundOutline=1;size=15;" vertex="1" parent="1">
          <mxGeometry x="185" y="340" width="60" height="80" as="geometry" />
        </mxCell>
        <mxCell id="cj-YQitfOQZqWISBJvCt-7" value="SOLR" style="shape=cylinder3;whiteSpace=wrap;html=1;boundedLbl=1;backgroundOutline=1;size=15;" vertex="1" parent="1">
          <mxGeometry x="280" y="340" width="60" height="80" as="geometry" />
        </mxCell>
        <mxCell id="cj-YQitfOQZqWISBJvCt-9" value="Actor" style="shape=umlActor;verticalLabelPosition=bottom;verticalAlign=top;html=1;outlineConnect=0;" vertex="1" parent="1">
          <mxGeometry x="245" y="570" width="30" height="60" as="geometry" />
        </mxCell>
        <mxCell id="cj-YQitfOQZqWISBJvCt-10" value="Scholars" style="sketch=0;outlineConnect=0;gradientColor=none;fontColor=#545B64;strokeColor=none;fillColor=#879196;dashed=0;verticalLabelPosition=bottom;verticalAlign=top;align=center;html=1;fontSize=12;fontStyle=0;aspect=fixed;shape=mxgraph.aws4.illustration_desktop;pointerEvents=1" vertex="1" parent="1">
          <mxGeometry x="140" y="459" width="100" height="91" as="geometry" />
        </mxCell>
        <mxCell id="cj-YQitfOQZqWISBJvCt-11" value="Profile Mgr" style="sketch=0;outlineConnect=0;gradientColor=none;fontColor=#545B64;strokeColor=none;fillColor=#879196;dashed=0;verticalLabelPosition=bottom;verticalAlign=top;align=center;html=1;fontSize=12;fontStyle=0;aspect=fixed;shape=mxgraph.aws4.illustration_desktop;pointerEvents=1" vertex="1" parent="1">
          <mxGeometry x="280" y="459" width="100" height="91" as="geometry" />
        </mxCell>
        <mxCell id="cj-YQitfOQZqWISBJvCt-12" value="FDR (Oracle)" style="shape=cylinder3;whiteSpace=wrap;html=1;boundedLbl=1;backgroundOutline=1;size=15;" vertex="1" parent="1">
          <mxGeometry x="180" y="250" width="160" height="60" as="geometry" />
        </mxCell>
        <mxCell id="cj-YQitfOQZqWISBJvCt-19" style="edgeStyle=orthogonalEdgeStyle;rounded=0;orthogonalLoop=1;jettySize=auto;html=1;exitX=0.5;exitY=1;exitDx=0;exitDy=0;entryX=0.5;entryY=0;entryDx=0;entryDy=0;entryPerimeter=0;" edge="1" parent="1">
          <mxGeometry relative="1" as="geometry">
            <mxPoint x="218" y="308" as="sourcePoint" />
            <mxPoint x="218" y="338" as="targetPoint" />
            <Array as="points">
              <mxPoint x="218" y="318" />
              <mxPoint x="218" y="318" />
            </Array>
          </mxGeometry>
        </mxCell>
        <mxCell id="cj-YQitfOQZqWISBJvCt-20" style="edgeStyle=orthogonalEdgeStyle;rounded=0;orthogonalLoop=1;jettySize=auto;html=1;exitX=0.5;exitY=1;exitDx=0;exitDy=0;entryX=0.5;entryY=0;entryDx=0;entryDy=0;entryPerimeter=0;" edge="1" parent="1">
          <mxGeometry relative="1" as="geometry">
            <mxPoint x="308" y="310" as="sourcePoint" />
            <mxPoint x="308" y="340" as="targetPoint" />
            <Array as="points">
              <mxPoint x="308" y="320" />
              <mxPoint x="308" y="320" />
            </Array>
          </mxGeometry>
        </mxCell>
      </root>
    </mxGraphModel>
  </diagram>
</mxfile>
